<svg xmlns="http://www.w3.org/2000/svg" xmlns:xlink="http://www.w3.org/1999/xlink" version="1.1" x="0px" y="0px" viewBox="0 0 512 640" style="enable-background:new 0 0 512 512;" xml:space="preserve"><g><path d="M498.5,195.2v-1.5c0-99.4-80.8-180.2-180.2-180.2h-1.5L256,215.1L195.6,14.9l-0.4-1.4h-1.5c-99.4,0-180.2,80.8-180.2,180.2   v1.5L215.1,256L14.9,316.4l-1.4,0.4v1.5c0,99.4,80.8,180.2,180.2,180.2h1.5L256,296.9l60.4,200.2l0.4,1.4h1.5   c99.4,0,180.2-80.8,180.2-180.2v-1.5L296.9,256l200.2-60.4L498.5,195.2z"/></g><text x="0" y="527" fill="#000000" font-size="5px" font-weight="bold" font-family="'Helvetica Neue', Helvetica, Arial-Unicode, Arial, Sans-serif">Created by WiStudio</text><text x="0" y="532" fill="#000000" font-size="5px" font-weight="bold" font-family="'Helvetica Neue', Helvetica, Arial-Unicode, Arial, Sans-serif">from the Noun Project</text></svg>