<svg xmlns="http://www.w3.org/2000/svg" xmlns:xlink="http://www.w3.org/1999/xlink" version="1.1" x="0px" y="0px" viewBox="0 0 512 640" style="enable-background:new 0 0 512 512;" xml:space="preserve"><g><path d="M450.8,356c-30.1-34.8-72.6-68.4-126.3-100c53.7-31.6,96.2-65.2,126.3-100c33-38.1,42.3-67.5,44.3-85.4   c2-18.1-2.6-33.4-13.1-43.1c-9.7-10.4-24.9-15-42.9-13.1c-17.7,1.9-46.6,11-84.3,43.2C320.5,87,287.2,128.5,256,181   c-31.3-52.5-64.5-94-98.8-123.4c-37.7-32.3-66.7-41.3-84.3-43.2c-18-1.9-33.2,2.7-42.9,13.1c-10.4,9.7-15.1,25-13.1,43.1   c2,17.9,11.3,47.3,44.3,85.4c30.1,34.8,72.6,68.4,126.3,100c-53.7,31.6-96.2,65.2-126.3,100c-33,38.1-42.3,67.5-44.3,85.4   c-2,18.1,2.6,33.4,13.1,43.1c8.2,8.8,20.4,13.5,35,13.5c2.5,0,5.1-0.1,7.8-0.4c17.7-1.9,46.6-11,84.3-43.2   c34.3-29.4,67.6-70.9,98.8-123.4c31.3,52.5,64.5,94,98.8,123.4c37.7,32.3,66.7,41.3,84.3,43.2c18,1.9,33.2-2.7,42.9-13.1   c10.4-9.7,15.1-25,13.1-43.1C493.1,423.4,483.8,394.1,450.8,356z"/></g><text x="0" y="527" fill="#000000" font-size="5px" font-weight="bold" font-family="'Helvetica Neue', Helvetica, Arial-Unicode, Arial, Sans-serif">Created by WiStudio</text><text x="0" y="532" fill="#000000" font-size="5px" font-weight="bold" font-family="'Helvetica Neue', Helvetica, Arial-Unicode, Arial, Sans-serif">from the Noun Project</text></svg>