<svg xmlns="http://www.w3.org/2000/svg" xmlns:xlink="http://www.w3.org/1999/xlink" version="1.1" x="0px" y="0px" viewBox="0 0 32 40" style="enable-background:new 0 0 32 32;" xml:space="preserve"><path d="M16.69,25.55c0.25-2.41,0.62-4.16,1.29-5.46c1.39,0.44,2.9,1.43,4.78,2.95c0.37,0.3,0.86-0.19,0.56-0.56  c-1.53-1.88-2.51-3.38-2.95-4.78c2.16-1.12,5.6-1.39,11.18-1.68c-5.58-0.29-9.02-0.57-11.18-1.68c0.44-1.39,1.43-2.9,2.95-4.78  c0.3-0.37-0.19-0.86-0.56-0.56c-1.88,1.53-3.38,2.51-4.78,2.95c-0.67-1.3-1.04-3.06-1.29-5.46c-0.05-0.48-0.74-0.48-0.79,0  c-0.25,2.41-0.61,4.16-1.29,5.46c-1.39-0.44-2.9-1.43-4.78-2.95C9.46,8.71,8.97,9.2,9.27,9.57c1.53,1.88,2.51,3.38,2.95,4.78  c-2.16,1.12-5.6,1.39-11.18,1.68c5.58,0.29,9.02,0.57,11.18,1.68c-0.44,1.39-1.43,2.9-2.95,4.78c-0.3,0.37,0.19,0.86,0.56,0.56  c1.88-1.53,3.38-2.51,4.78-2.95c0.67,1.3,1.04,3.06,1.29,5.46C15.94,26.03,16.64,26.03,16.69,25.55z"/><text x="0" y="47" fill="#000000" font-size="5px" font-weight="bold" font-family="'Helvetica Neue', Helvetica, Arial-Unicode, Arial, Sans-serif">Created by Aldiyansah Ramadan</text><text x="0" y="52" fill="#000000" font-size="5px" font-weight="bold" font-family="'Helvetica Neue', Helvetica, Arial-Unicode, Arial, Sans-serif">from the Noun Project</text></svg>